<?xml version="1.0" standalone="no"?><!DOCTYPE svg PUBLIC "-//W3C//DTD SVG 1.1//EN" "http://www.w3.org/Graphics/SVG/1.1/DTD/svg11.dtd"><svg t="1596027402681" class="icon" viewBox="0 0 1024 1024" version="1.1" xmlns="http://www.w3.org/2000/svg" p-id="2031" xmlns:xlink="http://www.w3.org/1999/xlink" width="200" height="200"><defs><style type="text/css"></style></defs><path d="M789.333 277.333c-8.533 0-14.933 2.134-21.333 4.267v-4.267h-2.133c-8.534-66.133-53.334-123.733-115.2-157.866L680.533 76.8c0-4.267 2.134-8.533 2.134-12.8 0-12.8-8.534-21.333-21.334-21.333-6.4 0-12.8 4.266-17.066 10.666L610.133 102.4c-29.866-10.667-64-17.067-98.133-17.067s-68.267 6.4-98.133 17.067l-34.134-49.067c-4.266-6.4-10.666-10.666-17.066-10.666-12.8 0-21.334 8.533-21.334 21.333 0 4.267 2.134 8.533 4.267 10.667l29.867 42.666c-64 34.134-108.8 91.734-115.2 157.867H256v4.267c-6.4-2.134-12.8-4.267-21.333-4.267-36.267 0-64 27.733-64 64v298.667c0 36.266 27.733 64 64 64 8.533 0 14.933-2.134 21.333-4.267V768c0 23.467 19.2 42.667 42.667 42.667h42.666v106.666c0 36.267 27.734 64 64 64s64-27.733 64-64V810.667h85.334v106.666c0 36.267 27.733 64 64 64s64-27.733 64-64V810.667h42.666C748.8 810.667 768 791.467 768 768v-68.267c6.4 2.134 12.8 4.267 21.333 4.267 36.267 0 64-27.733 64-64V341.333c0-36.266-27.733-64-64-64zM256 640c0 12.8-8.533 21.333-21.333 21.333S213.333 652.8 213.333 640V341.333c0-12.8 8.534-21.333 21.334-21.333S256 328.533 256 341.333V640z m256-512c108.8 0 198.4 66.133 211.2 149.333H300.8C313.6 194.133 403.2 128 512 128z m-85.333 789.333c0 12.8-8.534 21.334-21.334 21.334S384 930.133 384 917.333V810.667h42.667v106.666z m213.333 0c0 12.8-8.533 21.334-21.333 21.334s-21.334-8.534-21.334-21.334V810.667H640v106.666zM725.333 768H298.667V320h426.666v448z m85.334-128c0 12.8-8.534 21.333-21.334 21.333S768 652.8 768 640V341.333c0-12.8 8.533-21.333 21.333-21.333s21.334 8.533 21.334 21.333V640zM576 192c-12.8 0-21.333 8.533-21.333 21.333 0 12.8 8.533 21.334 21.333 21.334s21.333-8.534 21.333-21.334c0-12.8-8.533-21.333-21.333-21.333z m-128 0c-12.8 0-21.333 8.533-21.333 21.333 0 12.8 8.533 21.334 21.333 21.334s21.333-8.534 21.333-21.334c0-12.8-8.533-21.333-21.333-21.333z" p-id="2032"></path></svg>