<?xml version="1.0" standalone="no"?><!DOCTYPE svg PUBLIC "-//W3C//DTD SVG 1.1//EN" "http://www.w3.org/Graphics/SVG/1.1/DTD/svg11.dtd"><svg t="1596027373505" class="icon" viewBox="0 0 1024 1024" version="1.1" xmlns="http://www.w3.org/2000/svg" p-id="1383" xmlns:xlink="http://www.w3.org/1999/xlink" width="200" height="200"><defs><style type="text/css"></style></defs><path d="M920.551418 565.324486c19.86442-22.88215 31.152511-60.706617 31.152511-96.736205 0-23.778566-5.163603-44.626383-14.963807-60.247152-12.68695-20.343327-33.033347-31.543414-57.227376-31.543414L762.21525 376.797715c63.833841-116.073622 79.977519-203.532533 47.951105-260.169461-22.357194-39.463804-63.308885-53.44319-91.616604-53.44319-11.199063 0-20.694321 8.290827-22.181185 19.402909-8.05035 59.087747-53.201689 129.616056-123.992989 193.448874-67.858504 61.164035-151.161768 110.035092-236.827847 139.327232-10.806113-22.751167-33.951253-38.523385-60.771085-38.523385L140.372539 376.840694c-37.058011 0-67.202565 30.144554-67.202565 67.201541L73.169975 847.25967c0 37.056987 30.144554 67.203588 67.202565 67.203588l134.405129 0c28.395724 0 52.720735-17.718547 62.520939-42.659589 87.85493 11.026124 120.930233 28.701692 152.956647 45.766346 40.119743 21.437242 77.920674 41.694611 201.7397 41.694611 32.28838 0 62.652945-8.443299 85.578074-23.669072 22.401196-14.963807 36.751019-35.921117 41.476647-60.20315 17.893532-7.262404 33.775244-24.02109 45.896306-48.914036 11.857049-24.240077 19.467377-55.214533 19.467377-78.927607 0-4.419659-0.261966-8.488325-0.74292-12.252045 11.332093-8.312316 21.525246-21.174252 29.881564-38.150902 12.078083-24.413016 19.337417-54.994522 19.337417-81.771375 0-19.032472-3.499707-34.82618-10.457166-47.121204-0.566912-0.962931-1.181919-1.924839-1.74883-2.886747L920.551418 565.324486zM274.690688 869.616864 140.284535 869.616864c-12.382005 0-22.401196-10.063193-22.401196-22.400173L117.883339 444.00028c0-12.359492 10.019191-22.400173 22.401196-22.400173l134.405129 0c12.382005 0 22.401196 10.04068 22.401196 22.400173l0 403.171386 0 0.045025C297.09086 859.553671 287.072693 869.616864 274.690688 869.616864zM894.694517 523.475356c-6.782473 13.628392-13.605879 18.527982-16.581654 18.527982-12.339026 0-22.401196 10.064216-22.401196 22.401196 0 12.383028 10.06217 22.402219 22.401196 22.402219 1.925862 0 3.238764 0 5.250584 3.499707 2.975774 5.250584 4.637624 14.350846 4.637624 25.024953 0 19.952424-5.600555 43.62252-14.699794 61.910025-8.839319 17.893532-17.850553 24.367991-21.789259 24.367991-12.338003 0-22.402219 10.064216-22.402219 22.402219 0 7.919367 4.114714 14.918781 10.327206 18.900465 1.399883 14.219863-5.250584 52.195779-22.401196 77.003791-6.51846 9.362228-13.387915 14.699794-18.727527 14.699794-12.380982 0-22.401196 10.064216-22.401196 22.401196 0 39.463804-43.575448 57.403385-84.002183 57.403385-112.616894 0-144.118352-16.844643-180.650383-36.402071-34.127262-18.200524-72.496128-38.720883-169.406295-50.751894l0-366.81434c94.154403-30.888498 186.03195-84.090187 260.366959-151.118789 71.40119-64.335261 118.259404-133.880173 134.141116-198.303438 12.208043 3.89368 25.945929 12.141528 34.783201 27.693736 14.962783 26.427906 26.16287 93.913926-66.895573 248.970398-4.157693 6.889921-4.243651 15.530718-0.26299 22.575158 3.982708 7.021927 11.419074 11.375072 19.513426 11.375072l156.017356 0c8.9263 0 14.657838 3.12927 19.25146 10.479679 5.250584 8.377808 8.138354 21.37175 8.138354 36.509519 0 19.009959-4.595668 39.530318-12.208043 54.887075L894.693494 523.475356z" p-id="1384"></path></svg>