<?xml version="1.0" standalone="no"?><!DOCTYPE svg PUBLIC "-//W3C//DTD SVG 1.1//EN" "http://www.w3.org/Graphics/SVG/1.1/DTD/svg11.dtd"><svg t="1596946298885" class="icon" viewBox="0 0 1024 1024" version="1.1" xmlns="http://www.w3.org/2000/svg" p-id="4743" xmlns:xlink="http://www.w3.org/1999/xlink" width="200" height="200"><defs><style type="text/css"></style></defs><path d="M821.248 422.912h-2.048c-14.848 0-28.672 3.072-42.496 10.24-15.872-35.84-49.664-58.368-88.064-58.368-15.36 0-30.72 3.584-44.544 10.24-15.872-35.84-49.664-58.368-88.064-58.368-12.288 0-24.064 2.048-35.328 6.144V253.952c0-55.808-42.496-99.328-96.768-99.328-55.296 0-99.84 44.544-99.84 99.328v333.824l-41.984-41.472c-39.936-39.424-108.544-32.768-141.312 0-31.744 31.744-55.296 98.816-6.656 146.944l256 254.464c5.12 5.12 11.264 10.24 18.432 14.336 46.08 37.376 100.864 61.952 218.112 61.952 268.288 0 290.304-151.04 290.304-319.488V522.24c0.512-55.296-41.984-99.328-95.744-99.328zM243.712 598.528l91.648 91.136c19.968 19.968 53.76 5.632 53.76-22.528V263.68c0-19.456 15.872-34.816 35.328-34.816 18.432 0 32.256 14.848 32.256 34.816v296.96c0 17.92 14.336 32.256 32.256 32.256 16.896 0 30.208-12.8 32.256-28.672v-128c0-19.968 14.336-34.816 33.28-34.816 0.512 0 15.36 0 25.088 9.728 6.144 5.632 8.704 14.336 8.704 25.088V599.04c0 17.92 14.336 32.256 32.256 32.256 16.896 0 30.208-12.8 32.256-28.672V484.352c0-19.968 14.336-34.816 32.256-34.816 34.816 2.56 35.84 31.744 35.84 34.816v143.36c0 17.92 14.336 32.256 32.256 32.256 16.896 0 29.696-12.288 31.744-28.672v-102.912c0-19.456 14.848-34.816 33.792-34.816 0 0 14.848-0.512 24.576 9.216 6.144 5.632 9.216 14.336 9.216 26.112v176.128c0 142.848 0 255.488-225.792 255.488-93.184 0-152.064-19.456-197.632-64.512l-242.176-240.64c-8.192-8.192-12.288-17.92-11.264-28.16 0.512-9.216 5.12-18.944 12.8-26.624s18.432-11.264 28.672-11.264c10.24-1.024 19.968 2.56 26.624 9.216z" p-id="4744"></path><path d="M219.648 274.944c17.408-2.56 30.208-17.92 30.208-35.84 0.512-92.672 75.776-168.448 168.96-168.448s168.448 75.264 168.96 168.448c0 17.408 12.8 33.28 30.208 35.84 22.016 3.072 40.448-13.824 40.448-34.816C658.432 107.52 550.912 0 418.816 0S179.2 107.52 179.2 239.616c0 21.504 18.432 38.4 40.448 35.328z" p-id="4745"></path></svg>