<?xml version="1.0" standalone="no"?><!DOCTYPE svg PUBLIC "-//W3C//DTD SVG 1.1//EN" "http://www.w3.org/Graphics/SVG/1.1/DTD/svg11.dtd"><svg t="1596027417312" class="icon" viewBox="0 0 1280 1024" version="1.1" xmlns="http://www.w3.org/2000/svg" p-id="2552" xmlns:xlink="http://www.w3.org/1999/xlink" width="250" height="200"><defs><style type="text/css"></style></defs><path d="M1024.21878 382l-16.4 28.6c-6 10.6-18.8 15-30.2 10.8-23.6-8.8-45.2-21.4-64.2-37.2-9.2-7.6-11.6-21-5.6-31.4l16.4-28.6c-13.8-16-24.6-34.6-31.8-54.8h-33c-12 0-22.4-8.6-24.4-20.6-4-24-4.2-49.2 0-74.2 2-12 12.4-20.8 24.4-20.8h33c7.2-20.2 18-38.8 31.8-54.8l-16.4-28.6c-6-10.4-3.8-23.8 5.6-31.4 19-15.8 40.8-28.4 64.2-37.2 11.4-4.2 24.2 0.2 30.2 10.8l16.4 28.6c21-3.8 42.4-3.8 63.4 0L1104.01878 12.6c6-10.6 18.8-15 30.2-10.8 23.6 8.8 45.2 21.4 64.2 37.2 9.2 7.6 11.6 21 5.6 31.4l-16.4 28.6c13.8 16 24.6 34.6 31.8 54.8h33c12 0 22.4 8.6 24.4 20.6 4 24 4.2 49.2 0 74.2-2 12-12.4 20.8-24.4 20.8h-33c-7.2 20.2-18 38.8-31.8 54.8l16.4 28.6c6 10.4 3.8 23.8-5.6 31.4-19 15.8-40.8 28.4-64.2 37.2-11.4 4.2-24.2-0.2-30.2-10.8l-16.4-28.6c-20.8 3.8-42.4 3.8-63.4 0z m-21-117.6c77 59.2 164.8-28.6 105.6-105.6-77-59.4-164.8 28.6-105.6 105.6zM772.61878 572.2l67.4 33.6c20.2 11.6 29 36.2 21 58.2-17.8 48.4-52.8 92.8-85.2 131.6-14.8 17.8-40.4 22.2-60.6 10.6l-58.2-33.6c-32 27.4-69.2 49.2-109.8 63.4v67.2c0 23.2-16.6 43.2-39.4 47.2-49.2 8.4-100.8 8.8-151.8 0-23-4-40-23.8-40-47.2V836c-40.6-14.4-77.8-36-109.8-63.4L148.01878 806c-20 11.6-45.8 7.2-60.6-10.6-32.4-38.8-66.6-83.2-84.4-131.4-8-21.8 0.8-46.4 21-58.2l66.6-33.6c-7.8-41.8-7.8-84.8 0-126.8L24.01878 411.6c-20.2-11.6-29.2-36.2-21-58 17.8-48.4 52-92.8 84.4-131.6 14.8-17.8 40.4-22.2 60.6-10.6l58.2 33.6c32-27.4 69.2-49.2 109.8-63.4V114.2c0-23 16.4-43 39.2-47 49.2-8.4 101-8.8 152-0.2 23 4 40 23.8 40 47.2v67.2c40.6 14.4 77.8 36 109.8 63.4l58.2-33.6c20-11.6 45.8-7.2 60.6 10.6 32.4 38.8 66.4 83.2 84.2 131.6 8 21.8 0.2 46.4-20 58.2l-67.4 33.6c7.8 42 7.8 85 0 127z m-235.2 42.2c118.4-154-57.4-329.8-211.4-211.4-118.4 154 57.4 329.8 211.4 211.4z m486.8 365.4l-16.4 28.6c-6 10.6-18.8 15-30.2 10.8-23.6-8.8-45.2-21.4-64.2-37.2-9.2-7.6-11.6-21-5.6-31.4l16.4-28.6c-13.8-16-24.6-34.6-31.8-54.8h-33c-12 0-22.4-8.6-24.4-20.6-4-24-4.2-49.2 0-74.2 2-12 12.4-20.8 24.4-20.8h33c7.2-20.2 18-38.8 31.8-54.8l-16.4-28.6c-6-10.4-3.8-23.8 5.6-31.4 19-15.8 40.8-28.4 64.2-37.2 11.4-4.2 24.2 0.2 30.2 10.8l16.4 28.6c21-3.8 42.4-3.8 63.4 0l16.4-28.6c6-10.6 18.8-15 30.2-10.8 23.6 8.8 45.2 21.4 64.2 37.2 9.2 7.6 11.6 21 5.6 31.4l-16.4 28.6c13.8 16 24.6 34.6 31.8 54.8h33c12 0 22.4 8.6 24.4 20.6 4 24 4.2 49.2 0 74.2-2 12-12.4 20.8-24.4 20.8h-33c-7.2 20.2-18 38.8-31.8 54.8l16.4 28.6c6 10.4 3.8 23.8-5.6 31.4-19 15.8-40.8 28.4-64.2 37.2-11.4 4.2-24.2-0.2-30.2-10.8l-16.4-28.6c-20.8 3.8-42.4 3.8-63.4 0zM1003.21878 862c77 59.2 164.8-28.6 105.6-105.6-77-59.2-164.8 28.6-105.6 105.6z" fill="" p-id="2553"></path></svg>