<?xml version="1.0" standalone="no"?><!DOCTYPE svg PUBLIC "-//W3C//DTD SVG 1.1//EN" "http://www.w3.org/Graphics/SVG/1.1/DTD/svg11.dtd"><svg t="1596027393756" class="icon" viewBox="0 0 1024 1024" version="1.1" xmlns="http://www.w3.org/2000/svg" p-id="1773" xmlns:xlink="http://www.w3.org/1999/xlink" width="200" height="200"><defs><style type="text/css"></style></defs><path d="M919.28 123.382l-816.172 0c-16.148 0-29.239 13.735-29.239 30.679l0 525.546c0 16.944 13.091 30.679 29.239 30.679l388.293 0 0 141.945-223.936 0c-26.388 0-47.78 21.391-47.78 47.779l585.029 0c0-26.387-21.391-47.779-47.78-47.779l-225.947 0 0-141.945 388.293 0c16.147 0 29.238-13.735 29.238-30.679l0-525.546c0.001-16.944-13.09-30.679-29.238-30.679zM908.934 670.701l-795.477 0 0-507.731 795.477 0 0 507.731z" p-id="1774"></path></svg>