<?xml version="1.0" standalone="no"?><!DOCTYPE svg PUBLIC "-//W3C//DTD SVG 1.1//EN" "http://www.w3.org/Graphics/SVG/1.1/DTD/svg11.dtd"><svg t="1596027420884" class="icon" viewBox="0 0 1024 1024" version="1.1" xmlns="http://www.w3.org/2000/svg" p-id="2681" xmlns:xlink="http://www.w3.org/1999/xlink" width="200" height="200"><defs><style type="text/css"></style></defs><path d="M597.333333 802.133333h-170.666666c-78.506667 0-102.4-136.533333-112.64-180.906666 0-6.826667-6.826667-10.24-10.24-13.653334-68.266667-61.44-112.64-150.186667-116.053334-232.106666v-30.72-6.826667C187.733333 160.426667 334.506667 13.653333 512 13.653333s324.266667 146.773333 324.266667 324.266667v34.133333c0 85.333333-40.96 163.84-119.466667 232.106667-3.413333 3.413333-6.826667 10.24-10.24 13.653333-6.826667 47.786667-30.72 184.32-109.226667 184.32zM512 51.2c-160.426667 0-290.133333 129.706667-290.133333 290.133333v34.133334c3.413333 75.093333 44.373333 150.186667 105.813333 204.8 10.24 10.24 17.066667 20.48 20.48 34.133333 23.893333 133.12 58.026667 153.6 78.506667 153.6h170.666666c17.066667 0 54.613333-20.48 78.506667-153.6 3.413333-13.653333 10.24-23.893333 20.48-34.133333 71.68-61.44 105.813333-129.706667 105.813333-204.8v-23.893334-10.24c0-160.426667-129.706667-290.133333-290.133333-290.133333zM614.4 870.4h-204.8c-10.24 0-17.066667-6.826667-17.066667-17.066667s6.826667-17.066667 17.066667-17.066666h204.8c10.24 0 17.066667 6.826667 17.066667 17.066666s-6.826667 17.066667-17.066667 17.066667zM580.266667 938.666667h-136.533334c-10.24 0-17.066667-6.826667-17.066666-17.066667s6.826667-17.066667 17.066666-17.066667h136.533334c10.24 0 17.066667 6.826667 17.066666 17.066667s-6.826667 17.066667-17.066666 17.066667zM546.133333 1006.933333h-68.266666c-10.24 0-17.066667-6.826667-17.066667-17.066666s6.826667-17.066667 17.066667-17.066667h68.266666c10.24 0 17.066667 6.826667 17.066667 17.066667s-6.826667 17.066667-17.066667 17.066666z" fill="" p-id="2682"></path></svg>