<?xml version="1.0" standalone="no"?><!DOCTYPE svg PUBLIC "-//W3C//DTD SVG 1.1//EN" "http://www.w3.org/Graphics/SVG/1.1/DTD/svg11.dtd"><svg t="1596027428744" class="icon" viewBox="0 0 1024 1024" version="1.1" xmlns="http://www.w3.org/2000/svg" p-id="2939" xmlns:xlink="http://www.w3.org/1999/xlink" width="200" height="200"><defs><style type="text/css"></style></defs><path d="M889.856 91.136H134.144C60.416 91.136 0 151.04 0 225.28v573.44c0 74.24 60.416 134.144 134.144 134.144h755.712c73.728 0 134.144-60.416 134.144-134.144V225.28c0-74.24-60.416-134.144-134.144-134.144zM958.464 742.4v56.832c0 37.888-30.72 68.608-68.608 68.608h-15.36V742.4h83.968z m0-197.632v131.584h-83.968v-131.584h83.968z m0-174.592v109.056h-83.968V370.176h83.968z m0-144.896v78.848h-83.968V156.672h15.36c37.888 0 68.608 30.72 68.608 68.608z m-150.016-68.608v710.656H215.552V156.672h592.896zM149.504 742.4v125.44h-15.36c-37.888 0-68.608-30.72-68.608-68.608V742.4h83.968z m0-197.632v131.584H65.536v-131.584h83.968z m0-174.592v109.056H65.536V370.176h83.968z m0-213.504v147.456H65.536V225.28c0-37.888 30.72-68.608 68.608-68.608h15.36z" p-id="2940"></path><path d="M396.8 678.4c4.608 3.072 10.752 4.608 16.384 4.608s11.264-1.536 16.384-4.608l238.08-137.216c10.24-5.632 16.384-16.896 16.384-28.672s-6.144-22.528-16.384-28.672L429.568 346.112c-10.24-6.144-22.528-6.144-32.768 0-10.24 5.632-16.384 16.896-16.384 28.672v274.944c0 11.776 6.144 22.528 16.384 28.672z m49.152-85.504V431.616l139.776 80.896-139.776 80.384z" p-id="2941"></path></svg>