<?xml version="1.0" standalone="no"?><!DOCTYPE svg PUBLIC "-//W3C//DTD SVG 1.1//EN" "http://www.w3.org/Graphics/SVG/1.1/DTD/svg11.dtd"><svg t="1596027413685" class="icon" viewBox="0 0 1024 1024" version="1.1" xmlns="http://www.w3.org/2000/svg" p-id="2423" xmlns:xlink="http://www.w3.org/1999/xlink" width="200" height="200"><defs><style type="text/css"></style></defs><path d="M661.632 640C579.114667 640 512 707.114667 512 789.632s67.114667 149.632 149.632 149.632c75.477333 0 137.386667-56.32 147.541333-128.981333H810.666667v-14.848c0.085333-2.005333 0.597333-3.84 0.597333-5.802667s-0.512-3.797333-0.597333-5.802667V316.202667a42.538667 42.538667 0 0 0-23.893334-38.272l-384-188.202667A42.581333 42.581333 0 0 0 341.333333 128.042667l0.426667 355.712a147.797333 147.797333 0 0 0-64.128-15.018667C195.114667 468.736 128 535.893333 128 618.368S195.114667 768 277.632 768s149.632-67.114667 149.632-149.632v-0.042667l-0.512-421.888L725.333333 342.784v312.021333A147.882667 147.882667 0 0 0 661.632 640z m-384 42.666667C242.176 682.666667 213.333333 653.824 213.333333 618.368s28.842667-64.298667 64.298667-64.298667 64.298667 28.842667 64.298667 64.298667c0 35.456-28.842667 64.298667-64.298667 64.298667z m384 171.264c-35.456 0-64.298667-28.842667-64.298667-64.298667S626.176 725.333333 661.632 725.333333c33.493333 0 60.757333 25.770667 63.701333 58.496v11.562667a64.128 64.128 0 0 1-63.701333 58.538667z" fill="" p-id="2424"></path></svg>