<?xml version="1.0" standalone="no"?><!DOCTYPE svg PUBLIC "-//W3C//DTD SVG 1.1//EN" "http://www.w3.org/Graphics/SVG/1.1/DTD/svg11.dtd">
<svg t="1614497987517" class="icon" viewBox="0 0 1170 1024" version="1.1" xmlns="http://www.w3.org/2000/svg" p-id="1621"
     width="228.515625" height="200"><defs><style type="text/css"></style></defs><path d="M1065.691429 0.585143H105.398857C46.957714 0.585143 1.097143 46.518857 1.097143 104.96v793.161143c0 58.514286 45.860571 104.374857 104.374857 104.374857h960.146286c58.514286 0 104.374857-45.933714 104.374857-104.374857V104.96A106.057143 106.057143 0 0 0 1065.691429 0.585143zM105.398857 84.041143h960.146286c12.507429 0 20.918857 8.338286 20.918857 20.918857V311.588571H84.553143V104.96c0-10.459429 10.459429-20.918857 20.918857-20.918857z m960.146286 834.998857H105.472c-12.580571 0-20.918857-8.411429-20.918857-20.918857V397.165714h1001.984v501.028572a22.454857 22.454857 0 0 1-20.918857 20.845714z" p-id="1622"></path><path d="M191.049143 194.706286a52.150857 52.150857 0 1 0 104.301714 0 52.150857 52.150857 0 0 0-104.301714 0z m150.235428 0a52.150857 52.150857 0 1 0 104.374858 0 52.150857 52.150857 0 0 0-104.374858 0z m150.308572 0a52.150857 52.150857 0 1 0 104.374857 0 52.150857 52.150857 0 0 0-104.374857 0z m-91.867429 413.257143a38.765714 38.765714 0 0 0-47.981714-20.845715l-156.525714 64.731429c-12.580571 6.217143-22.966857 18.797714-22.966857 33.353143 0 14.628571 8.338286 27.136 20.845714 33.426285l154.477714 70.948572a38.619429 38.619429 0 0 0 14.628572 4.169143c14.628571 0 27.062857-8.338286 33.353142-20.845715a35.913143 35.913143 0 0 0-18.797714-47.981714l-77.165714-35.547428 77.165714-31.305143c20.918857-10.386286 31.378286-31.305143 22.966857-50.102857z m599.113143 43.885714l-156.525714-64.731429c-18.797714-8.338286-39.716571 2.121143-48.054857 20.845715-8.338286 18.797714 2.121143 39.716571 20.918857 48.054857l77.238857 31.305143-77.238857 35.474285a35.913143 35.913143 0 0 0-18.797714 47.981715 37.156571 37.156571 0 0 0 33.353142 20.918857c4.169143 0 10.459429 0 14.628572-4.169143l154.477714-70.948572a37.156571 37.156571 0 0 0 20.845714-33.426285c2.121143-12.507429-8.338286-25.088-20.845714-31.305143zM643.949714 505.709714a36.571429 36.571429 0 0 0-45.860571 22.966857l-79.36 242.102858a36.571429 36.571429 0 0 0 22.966857 45.933714c4.169143 2.121143 8.338286 2.121143 10.459429 2.121143 14.628571 0 29.257143-10.459429 35.474285-25.088l79.286857-242.102857a36.571429 36.571429 0 0 0-22.966857-45.933715z" p-id="1623"></path></svg>