<?xml version="1.0" standalone="no"?><!DOCTYPE svg PUBLIC "-//W3C//DTD SVG 1.1//EN" "http://www.w3.org/Graphics/SVG/1.1/DTD/svg11.dtd"><svg t="1596027802799" class="icon" viewBox="0 0 1024 1024" version="1.1" xmlns="http://www.w3.org/2000/svg" p-id="5599" xmlns:xlink="http://www.w3.org/1999/xlink" width="200" height="200"><defs><style type="text/css"></style></defs><path d="M949.333333 872.533333h-874.666666c-17.066667 0-32-14.933333-32-32V183.466667c0-17.066667 14.933333-32 32-32h874.666666c17.066667 0 32 14.933333 32 32v659.2c0 17.066667-14.933333 29.866667-32 29.866666zM74.666667 172.8c-6.4 0-10.666667 4.266667-10.666667 10.666667v659.2c0 6.4 4.266667 10.666667 10.666667 10.666666h874.666666c6.4 0 10.666667-4.266667 10.666667-10.666666V183.466667c0-6.4-4.266667-10.666667-10.666667-10.666667h-874.666666z" fill="#e6e6e6" p-id="5600"></path><path d="M970.666667 341.333333h-917.333334c-6.4 0-10.666667-4.266667-10.666666-10.666666s4.266667-10.666667 10.666666-10.666667h917.333334c6.4 0 10.666667 4.266667 10.666666 10.666667s-4.266667 10.666667-10.666666 10.666666z" fill="#e6e6e6" p-id="5601"></path><path d="M377.6 684.8c-2.133333 0-4.266667 0-4.266667-2.133333l-162.133333-81.066667c-4.266667-2.133333-6.4-6.4-6.4-8.533333s2.133333-8.533333 6.4-8.533334l162.133333-81.066666c4.266667-2.133333 10.666667 0 14.933334 4.266666 2.133333 4.266667 0 10.666667-4.266667 14.933334l-142.933333 70.4 142.933333 70.4c4.266667 2.133333 6.4 8.533333 4.266667 14.933333-4.266667 4.266667-6.4 6.4-10.666667 6.4zM646.4 684.8c-4.266667 0-8.533333-2.133333-8.533333-6.4-2.133333-4.266667 0-10.666667 4.266666-14.933333l142.933334-70.4-142.933334-70.4c-4.266667-2.133333-6.4-8.533333-4.266666-14.933334 2.133333-4.266667 8.533333-6.4 14.933333-4.266666l162.133333 81.066666c4.266667 2.133333 6.4 6.4 6.4 8.533334s-2.133333 8.533333-6.4 8.533333L650.666667 682.666667c0 2.133333-2.133333 2.133333-4.266667 2.133333zM458.666667 710.4c-2.133333 0-4.266667 0-4.266667-2.133333-4.266667-2.133333-6.4-8.533333-4.266667-14.933334l108.8-215.466666c2.133333-4.266667 8.533333-6.4 14.933334-4.266667 4.266667 2.133333 6.4 8.533333 4.266666 14.933333L469.333333 704c-4.266667 4.266667-6.4 6.4-10.666666 6.4z" fill="#e6e6e6" p-id="5602"></path><path d="M138.666667 256h-21.333334c-6.4 0-10.666667-4.266667-10.666666-10.666667s4.266667-10.666667 10.666666-10.666666h21.333334c6.4 0 10.666667 4.266667 10.666666 10.666666s-4.266667 10.666667-10.666666 10.666667z" fill="#e6e6e6" p-id="5603"></path><path d="M202.666667 256h-21.333334c-6.4 0-10.666667-4.266667-10.666666-10.666667s4.266667-10.666667 10.666666-10.666666h21.333334c6.4 0 10.666667 4.266667 10.666666 10.666666s-4.266667 10.666667-10.666666 10.666667z" fill="#e6e6e6" p-id="5604"></path></svg>