<?xml version="1.0" standalone="no"?><!DOCTYPE svg PUBLIC "-//W3C//DTD SVG 1.1//EN" "http://www.w3.org/Graphics/SVG/1.1/DTD/svg11.dtd"><svg t="1596027398285" class="icon" viewBox="0 0 1024 1024" version="1.1" xmlns="http://www.w3.org/2000/svg" p-id="1902" xmlns:xlink="http://www.w3.org/1999/xlink" width="200" height="200"><defs><style type="text/css"></style></defs><path d="M42.666667 853.333333l384 53.333333L426.666667 554.666667 42.666667 554.666667 42.666667 853.333333zM85.333333 597.333333l298.666667 0 0 258.133333L85.333333 814.933333 85.333333 597.333333zM512 106.666667l0 362.666667 469.333333 0L981.333333 42.666667 512 106.666667zM938.666667 426.666667 554.666667 426.666667 554.666667 145.066667l384-53.333333L938.666667 426.666667zM512 917.333333l469.333333 64L981.333333 554.666667 512 554.666667 512 917.333333zM554.666667 597.333333l384 0 0 334.933333-384-53.333333L554.666667 597.333333zM42.666667 469.333333l384 0L426.666667 119.466667 42.666667 170.666667 42.666667 469.333333zM85.333333 209.066667l298.666667-40.533333L384 426.666667 85.333333 426.666667 85.333333 209.066667z" p-id="1903"></path></svg>